<svg xmlns="http://www.w3.org/2000/svg" data-name="Layer 1" viewBox="0 0 128 160" x="0px" y="0px"><title>Miscellaneous 84 expandlines</title><path d="M113.69742,59.02295a2.00009,2.00009,0,0,0,.60547,3.9541,7.84026,7.84026,0,0,0,3.69727-1.57318v8.079l4,3.494V61.40405a7.8467,7.8467,0,0,0,3.69727,1.573,2.02332,2.02332,0,0,0,.30566.02344,2.00035,2.00035,0,0,0,.2998-3.97754c-3.57373-.54767-4.22742-5.38586-4.30273-6.07812V51.40405a7.8467,7.8467,0,0,0,3.69727,1.573,2.02332,2.02332,0,0,0,.30566.02344,2.00035,2.00035,0,0,0,.2998-3.97754c-3.57373-.54767-4.22742-5.38586-4.30273-6.07812V41.40405a7.8467,7.8467,0,0,0,3.69727,1.573,2.02332,2.02332,0,0,0,.30566.02344,2.00035,2.00035,0,0,0,.2998-3.97754c-3.833-.5874-4.30762-6.11523-4.31152-6.16406A2.00007,2.00007,0,0,0,119.99624,31h-.001a2.00054,2.00054,0,0,0-1.99414,1.86084c-.00391.05566-.43262,5.56885-4.30371,6.16211a2.00009,2.00009,0,0,0,.60547,3.9541,7.84026,7.84026,0,0,0,3.69727-1.57318V42.8717c-.012.15619-.46814,5.5636-4.30273,6.15125a2.00009,2.00009,0,0,0,.60547,3.9541,7.84026,7.84026,0,0,0,3.69727-1.57318V52.8717C117.98813,53.02789,117.532,58.4353,113.69742,59.02295Z"/><path d="M39.9396,71.86816,67.97281,50.519,82.284,61.5415l3.11987-2.64636L69.20034,46.41553a2.00145,2.00145,0,0,0-2.43262-.00684L38.68423,67.7959l-7.25146-5.1333a2,2,0,0,0-2.29932-.00879L.85659,82.35938A1.99984,1.99984,0,1,0,3.1437,85.64063l27.124-18.90137,7.3042,5.1709A1.99958,1.99958,0,0,0,39.9396,71.86816Z"/><path d="M74.08316,67.69531a1.99969,1.99969,0,0,0-2.3252.04883L54.80386,80.39746a1.99981,1.99981,0,1,0,2.39258,3.20508L73.005,71.80469l4.02734,2.75293a2.004,2.004,0,0,0,2.42285-.126L95.715,60.63867l28.96973,25.30469a1.99949,1.99949,0,1,0,2.63086-3.01172L97.05,56.49365a2.00012,2.00012,0,0,0-2.60937-.019L78.03042,70.39453Z"/><path d="M2.00015,94h.5a2,2,0,0,0,0-4h-.5a2,2,0,1,0,0,4Z"/><path d="M23.55386,94a2,2,0,1,0,0-4H14.68911a2,2,0,0,0,0,4Z"/><path d="M33.527,94a2,2,0,0,0,0-4H32.41909a2,2,0,0,0,0,4Z"/><path d="M116.63492,90h-8.86426a2,2,0,1,0,0,4h8.86426a2,2,0,0,0,0-4Z"/><path d="M63.446,90a2,2,0,1,0,0,4h1.1084a2,2,0,0,0,0-4Z"/><path d="M54.5812,94a2,2,0,0,0,0-4H45.71646a2,2,0,1,0,0,4Z"/><path d="M94.47281,90a2,2,0,1,0,0,4h1.1084a2,2,0,0,0,0-4Z"/><path d="M76.74331,90a2,2,0,0,0,0,4h8.86523a2,2,0,0,0,0-4Z"/><path d="M126.00015,90h-.5a2,2,0,0,0,0,4h.5a2,2,0,0,0,0-4Z"/><path d="M4.00015,98h-2a2,2,0,1,0,0,4h2a2,2,0,0,0,0-4Z"/><path d="M25.68765,100a2.0001,2.0001,0,0,0-2-2H9.62515a2,2,0,0,0,0,4h14.0625A2.0001,2.0001,0,0,0,25.68765,100Z"/><path d="M38.56265,100a2.0001,2.0001,0,0,0,2,2h14.0625a2,2,0,1,0,0-4H40.56265A2.0001,2.0001,0,0,0,38.56265,100Z"/><path d="M71.50015,102h14.0625a2,2,0,0,0,0-4H71.50015a2,2,0,1,0,0,4Z"/><path d="M116.50015,98h-14.0625a2,2,0,0,0,0,4h14.0625a2,2,0,1,0,0-4Z"/><path d="M98.81265,100a2.0001,2.0001,0,0,0-2-2h-3.75a2,2,0,1,0,0,4h3.75A2.0001,2.0001,0,0,0,98.81265,100Z"/><path d="M65.87515,98h-3.75a2,2,0,0,0,0,4h3.75a2,2,0,0,0,0-4Z"/><path d="M34.93765,98h-3.75a2,2,0,0,0,0,4h3.75a2,2,0,1,0,0-4Z"/><path d="M126.00015,98h-2a2,2,0,0,0,0,4h2a2,2,0,0,0,0-4Z"/><path d="M17.50015,106h-.5a2,2,0,0,0,0,4h.5a2,2,0,1,0,0-4Z"/><path d="M32.84927,106h-8.126a2,2,0,1,0,0,4h8.126a2,2,0,0,0,0-4Z"/><path d="M103.27652,106h-8.126a2,2,0,0,0,0,4h8.126a2,2,0,0,0,0-4Z"/><path d="M40.97574,106H40.0729a2,2,0,1,0,0,4h.90283a2,2,0,0,0,0-4Z"/><path d="M64.45132,106h-.90283a2,2,0,1,0,0,4h.90283a2,2,0,0,0,0-4Z"/><path d="M79.80093,106H71.675a2,2,0,0,0,0,4h8.126a2,2,0,0,0,0-4Z"/><path d="M56.32534,106H48.19888a2,2,0,1,0,0,4h8.12646a2,2,0,1,0,0-4Z"/><path d="M87.92691,106h-.90234a2,2,0,0,0,0,4h.90234a2,2,0,0,0,0-4Z"/><path d="M111.00015,106h-.5a2,2,0,0,0,0,4h.5a2,2,0,1,0,0-4Z"/><path d="M28.00015,28.58838a2.0001,2.0001,0,0,0,2-2V20a2,2,0,0,0-4,0v6.58838A2.0001,2.0001,0,0,0,28.00015,28.58838Z"/><path d="M11.01822,33.35059a1.99972,1.99972,0,1,0,2.78027-2.875l-4.104-3.96875a1.99972,1.99972,0,1,0-2.78027,2.875Z"/><path d="M43.87845,33.89783a1.99014,1.99014,0,0,0,1.38977-.54773l4.106-3.96777a1.99973,1.99973,0,1,0-2.7793-2.876l-4.106,3.96777a1.98617,1.98617,0,0,0,1.38953,3.42371Z"/><path d="M17.79556,28.03271A2.03459,2.03459,0,0,0,20.421,29.085a1.99993,1.99993,0,0,0,1.05225-2.62549l-2.21924-5.187a2.00005,2.00005,0,1,0-3.67773,1.57324S17.79159,28.02332,17.79556,28.03271Z"/><path d="M35.91128,29.10205a2.02919,2.02919,0,0,0,2.62842-1.04443l2.23438-5.18018a1.99993,1.99993,0,0,0-3.67285-1.584l-2.23437,5.18018A2.00007,2.00007,0,0,0,35.91128,29.10205Z"/><path d="M46.797,39.52441A2.0335,2.0335,0,0,0,49.40347,40.623l5.35059-2.17822a2.00007,2.00007,0,0,0-1.50781-3.70508L47.89566,36.918A1.99989,1.99989,0,0,0,46.797,39.52441Z"/><path d="M1.29556,39.14453l5.41016,2.03662a2.02279,2.02279,0,0,0,2.57617-1.167A1.99975,1.99975,0,0,0,8.1149,37.438L2.70474,35.40137a1.99982,1.99982,0,0,0-1.40918,3.74316Z"/><path d="M28.00015,31.51758A16.48213,16.48213,0,0,0,11.55581,48a2,2,0,0,0,4,0,12.44439,12.44439,0,1,1,24.88867,0,2,2,0,0,0,4,0A16.48213,16.48213,0,0,0,28.00015,31.51758Z"/><path d="M77.882,33.99658c.707.0415,2.17676.12842,2.38867,3.14355a1.99958,1.99958,0,0,0,1.24707,1.709,2.042,2.042,0,0,0,2.08984-.36572c.11719-.10547,2.90234-2.5542,5.22363-.8833A2.00018,2.00018,0,0,0,91.16909,34.354a7.39591,7.39591,0,0,0-7.57812-.54639,6.093,6.093,0,0,0-5.47266-3.8042,2.00008,2.00008,0,0,0-.23633,3.99316Z"/><text x="0" y="143" fill="#000000" font-size="5px" font-weight="bold" font-family="'Helvetica Neue', Helvetica, Arial-Unicode, Arial, Sans-serif">Created by priyanka</text><text x="0" y="148" fill="#000000" font-size="5px" font-weight="bold" font-family="'Helvetica Neue', Helvetica, Arial-Unicode, Arial, Sans-serif">from the Noun Project</text></svg>