<svg xmlns="http://www.w3.org/2000/svg" xmlns:xlink="http://www.w3.org/1999/xlink" version="1.1" x="0px" y="0px" viewBox="0 0 100 125" enable-background="new 0 0 100 100" xml:space="preserve"><g><path d="M89.542,65.629c-4.585,0-8.314-3.729-8.314-8.311V42.685c0-4.584,3.729-8.314,8.314-8.314c4.581,0,8.312,3.73,8.312,8.314   v14.633C97.854,61.899,94.123,65.629,89.542,65.629z M89.542,37.25c-2.996,0-5.437,2.439-5.437,5.436v14.633   c0,2.996,2.44,5.433,5.437,5.433s5.433-2.437,5.433-5.433V42.685C94.975,39.689,92.538,37.25,89.542,37.25z"/></g><g><path d="M77.604,73.611H10.277V26.389h67.328V73.611z M13.155,70.733h61.571V29.267H13.155V70.733z"/></g><g><path d="M84.105,60.044h-9.379V39.956h9.379V60.044z M77.604,57.166h3.623V42.834h-3.623V57.166z"/></g><g><path d="M13.155,59.408H2.438V34.371h10.717V59.408z M5.316,56.531h4.96V37.25h-4.96V56.531z"/></g><g><path d="M51.55,65.205c-2.578,0-4.674-2.098-4.674-4.678c0-2.577,2.097-4.674,4.674-4.674c2.574,0,4.671,2.097,4.671,4.674   C56.221,63.107,54.124,65.205,51.55,65.205z M51.55,58.731c-0.989,0-1.796,0.807-1.796,1.796c0,0.992,0.807,1.799,1.796,1.799   s1.793-0.807,1.793-1.799C53.343,59.538,52.539,58.731,51.55,58.731z"/></g><g><path d="M63.063,65.205c-2.578,0-4.675-2.098-4.675-4.678c0-2.577,2.097-4.674,4.675-4.674c2.574,0,4.671,2.097,4.671,4.674   C67.733,63.107,65.637,65.205,63.063,65.205z M63.063,58.731c-0.99,0-1.797,0.807-1.797,1.796c0,0.992,0.807,1.799,1.797,1.799   c0.989,0,1.793-0.807,1.793-1.799C64.855,59.538,64.052,58.731,63.063,58.731z"/></g><g><rect x="13.231" y="59.088" width="28.543" height="2.879"/></g><text x="0" y="115" fill="#000000" font-size="5px" font-weight="bold" font-family="'Helvetica Neue', Helvetica, Arial-Unicode, Arial, Sans-serif">Created by Icons Producer</text><text x="0" y="120" fill="#000000" font-size="5px" font-weight="bold" font-family="'Helvetica Neue', Helvetica, Arial-Unicode, Arial, Sans-serif">from the Noun Project</text></svg>